<?xml version="1.0" encoding="UTF-8"?>
<!DOCTYPE svg PUBLIC "-//W3C//DTD SVG 1.1//EN" "http://www.w3.org/Graphics/SVG/1.1/DTD/svg11.dtd">
<!-- Creator: CorelDRAW 2020 (64-Bit) -->
<svg xmlns="http://www.w3.org/2000/svg" xml:space="preserve" width="150mm" height="75.6048mm" version="1.1" style="shape-rendering:geometricPrecision; text-rendering:geometricPrecision; image-rendering:optimizeQuality; fill-rule:evenodd; clip-rule:evenodd"
viewBox="0 0 62.0356 31.2679"
 xmlns:xlink="http://www.w3.org/1999/xlink"
 xmlns:xodm="http://www.corel.com/coreldraw/odm/2003">
 <defs>
  <style type="text/css">
   <![CDATA[
    .fil0 {fill:#FEFEFE}
    .fil3 {fill:black;fill-rule:nonzero}
    .fil2 {fill:#0068FF;fill-rule:nonzero}
    .fil1 {fill:#FDD901;fill-rule:nonzero}
   ]]>
  </style>
 </defs>
 <g id="Слой_x0020_1">
  <metadata id="CorelCorpID_0Corel-Layer"/>
  <g id="_1087485600">
   <path class="fil0" d="M0 0c0,6.3203 0,12.6406 0,18.9609 4.1024,0 8.2047,0 12.3071,0 0,4.1024 0,8.2047 0,12.307 12.4738,0 24.9476,0 37.4214,0 0,-4.1023 0,-8.2047 0,-12.307 4.1024,0 8.2047,0 12.3071,0 0,-6.3203 0,-12.6406 0,-18.9609 -20.6786,0 -41.357,0 -62.0356,0l0 0z"/>
   <polygon class="fil1" points="39.5449,27.5103 45.9709,27.5103 45.9709,21.7875 39.5449,21.7875 "/>
   <polygon class="fil2" points="39.5449,21.7875 45.9709,21.7875 45.9709,16.0647 39.5449,16.0647 "/>
   <path class="fil3" d="M3.7577 15.2032l11.4456 0 0 -11.4456 -11.4456 0 0 11.4456zm12.307 0l23.4802 0 7.2875 0 11.4456 0 0 -11.4456 -42.2133 0 0 11.4456zm22.6187 12.3071l0 -11.4456 -22.6187 0 0 11.4456 22.6187 0zm0.8615 -11.4456l0 11.4456 6.426 0 0 -11.4456 -6.426 0zm6.8567 12.3071l-6.8567 0 -0.4307 0 -23.9109 0 0 -12.3071 -12.307 0 0 -13.1685 12.3071 0 0.8615 0 43.0747 0 0 13.1685 -0.4308 0 -11.8763 0 0 12.3071 -0.4307 0 -0 0z"/>
   <path class="fil3" d="M22.6443 10.4918l0 0.3245c0,0.1946 -0.02,0.3809 -0.0599,0.5589 -0.0422,0.18 -0.1154,0.337 -0.2196,0.473 -0.1043,0.1361 -0.2485,0.2449 -0.4282,0.3266 -0.1797,0.0816 -0.4105,0.1235 -0.6922,0.1235 -0.0022,0 -0.0022,0 -0.0022,0.0021 -0.2884,0 -0.5236,-0.0419 -0.7055,-0.1235 -0.1819,-0.0816 -0.3239,-0.1947 -0.4282,-0.3349 -0.1043,-0.1402 -0.1753,-0.3056 -0.213,-0.494 -0.04,-0.1863 -0.0599,-0.383 -0.0599,-0.5903l0 -2.5453c0,-0.2093 0.0199,-0.4082 0.0599,-0.5945 0.0377,-0.1863 0.1087,-0.3495 0.213,-0.4898 0.1043,-0.1402 0.2463,-0.2512 0.4282,-0.3349 0.1819,-0.0816 0.4149,-0.1235 0.6966,-0.1235l0.0045 -0.0042c0.2862,0 0.5192,0.0419 0.701,0.1235 0.1819,0.0837 0.3261,0.1947 0.4304,0.3328 0.1043,0.1382 0.1753,0.2972 0.2152,0.4773 0.04,0.18 0.0599,0.3684 0.0599,0.563l0 0.314 -0.9096 0 0 -0.3098c0,-0.0816 -0.0067,-0.1633 -0.0177,-0.2428 -0.0111,-0.0796 -0.0355,-0.1507 -0.0688,-0.2156 -0.0333,-0.0628 -0.0843,-0.1151 -0.1486,-0.1549 -0.0644,-0.0397 -0.1509,-0.0586 -0.2574,-0.0586 -0.1132,0 -0.2019,0.0209 -0.2662,0.0607 -0.0644,0.0419 -0.1154,0.0963 -0.1509,0.1612 -0.0355,0.067 -0.0577,0.1444 -0.0688,0.2302 -0.0111,0.0858 -0.0156,0.1758 -0.0156,0.2701l0 2.5369c0,0.09 0.0045,0.1779 0.0133,0.2637 0.0089,0.0858 0.0311,0.1632 0.0665,0.2302 0.0333,0.0691 0.0843,0.1235 0.1486,0.1633 0.0644,0.0398 0.1531,0.0607 0.2685,0.0607 0.1043,0 0.1886,-0.0188 0.2529,-0.0544 0.0644,-0.0356 0.1154,-0.0837 0.1531,-0.1445 0.0355,-0.0607 0.0599,-0.1318 0.0732,-0.2114 0.0111,-0.0796 0.0177,-0.1633 0.0177,-0.2491l0 -0.3203 0.9096 0 0.0001 -0zm2.4878 -3.8179c0,-0.0021 0.0022,-0.0042 0.0045,-0.0042 0.2862,0 0.5192,0.0419 0.7011,0.1235 0.1819,0.0837 0.3239,0.1947 0.4282,0.3349 0.1043,0.1402 0.1753,0.3056 0.2152,0.4919 0.0377,0.1884 0.0577,0.3851 0.0577,0.5924l0 2.5453c0,0.2093 -0.0199,0.4082 -0.0577,0.5945 -0.04,0.1884 -0.1109,0.3517 -0.2152,0.4919 -0.1043,0.1402 -0.2485,0.2512 -0.4304,0.3328 -0.1842,0.0816 -0.4171,0.1235 -0.6989,0.1235 0,0 -0.0022,0 -0.0045,-0.0021l0 0.0021c-0.2862,0 -0.5191,-0.0419 -0.701,-0.1235 -0.1819,-0.0817 -0.3239,-0.1947 -0.4282,-0.335 -0.1043,-0.1402 -0.1775,-0.3056 -0.2152,-0.494 -0.0399,-0.1863 -0.0599,-0.383 -0.0599,-0.5903l0 -2.5453c0,-0.2093 0.02,-0.4082 0.0599,-0.5945 0.0377,-0.1863 0.111,-0.3496 0.2175,-0.4898 0.1043,-0.1402 0.2484,-0.2512 0.4304,-0.3349 0.1819,-0.0816 0.4149,-0.1235 0.6967,-0.1235l0 0.0042 -0 0zm0 4.7975c0.0022,0 0.0067,0 0.0089,0.0021 0.0022,0.0021 0.0044,0.0021 0.0067,0.0021 0.1087,-0.0021 0.193,-0.0251 0.2573,-0.0648 0.0644,-0.0398 0.1132,-0.0942 0.1464,-0.1612 0.0333,-0.0648 0.0555,-0.1423 0.0666,-0.2281 0.0111,-0.0859 0.0155,-0.1759 0.0155,-0.268l0 -2.5369c0,-0.09 -0.0044,-0.178 -0.0133,-0.2638 -0.0089,-0.0858 -0.0311,-0.1633 -0.0644,-0.2302 -0.0333,-0.067 -0.0843,-0.1214 -0.1486,-0.1633 -0.0644,-0.0398 -0.1553,-0.0607 -0.2707,-0.0607 -0.0067,0 -0.0133,-0.0021 -0.0177,-0.0042 -0.1087,0.0021 -0.193,0.0251 -0.2574,0.0648 -0.0644,0.0419 -0.1109,0.0963 -0.1442,0.1612 -0.0333,0.0648 -0.0555,0.1424 -0.0665,0.2282 -0.0111,0.0858 -0.0156,0.1758 -0.0156,0.2679l0 2.537c0,0.09 0.0045,0.1779 0.0156,0.2637 0.0089,0.0858 0.031,0.1632 0.0643,0.2302 0.0333,0.0691 0.0843,0.1235 0.1486,0.1633 0.0644,0.0398 0.1553,0.0607 0.2684,0.0607l-0 0zm3.4684 -3.3198l0.0577 4.0775 -0.8563 0 0 -5.4841 1.1736 0 0.7654 3.3323 0.7676 -3.3323 1.1692 0 0 5.4841 -0.8564 0 0.0532 -4.0314 -0.741 3.347 -0.7831 0 -0.7499 -3.3931 0 -0zm4.4446 4.0775l0 -5.4841 2.4582 0 0 0.8289 -1.5508 0 0 1.4506 1.2867 0 0 0.8288 -1.2867 0 0 1.5511 1.5508 0 0 0.8247 -2.4582 0 0 0zm7.4849 -1.9425c0,-0.0754 -0.011,-0.1465 -0.031,-0.2114 -0.0222,-0.0648 -0.0533,-0.1214 -0.0955,-0.1695 -0.0421,-0.0481 -0.0976,-0.0858 -0.1619,-0.113 -0.0644,-0.0272 -0.1398,-0.0397 -0.2263,-0.0397l-0.4859 0 0 1.6473 0.4881 0c0.0843,0 0.1575,-0.0084 0.2218,-0.0251 0.0643,-0.0147 0.1176,-0.044 0.1641,-0.0858 0.0444,-0.0419 0.0777,-0.1005 0.0999,-0.1738 0.02,-0.0732 0.0288,-0.1675 0.0266,-0.2826l0 -0.5463 0 -0zm-0.0643 -2.2251c0,-0.0796 -0.0089,-0.1528 -0.0266,-0.2177 -0.0177,-0.0648 -0.0466,-0.1193 -0.0843,-0.1675 -0.0377,-0.046 -0.0888,-0.0816 -0.1486,-0.1067 -0.0621,-0.0251 -0.1376,-0.0377 -0.2263,-0.0377l-0.4504 0 0 1.4422 0.386 0c0.1043,0 0.1908,-0.0126 0.264,-0.0356 0.071,-0.023 0.1287,-0.0586 0.173,-0.1067 0.0444,-0.0481 0.0755,-0.1067 0.0932,-0.18 0.0178,-0.0711 0.0266,-0.1569 0.0244,-0.2595l-0.0044 -0.3307 0 0zm0.9695 2.7567c0,0.2533 -0.0289,0.4668 -0.0843,0.6447 -0.0577,0.1779 -0.1442,0.3244 -0.2618,0.4375 -0.1176,0.113 -0.264,0.1946 -0.4393,0.247 -0.1753,0.0523 -0.3838,0.0774 -0.6235,0.0774l-1.4021 0 0 -5.4799 1.3822 0c0.2352,0 0.4393,0.0272 0.6101,0.0837 0.1708,0.0565 0.3128,0.1381 0.4259,0.2449 0.1132,0.1067 0.1952,0.2386 0.2507,0.3914 0.0555,0.1549 0.0821,0.3307 0.0821,0.5275l0 0.3203c0,0.2868 -0.0421,0.5128 -0.1264,0.6803 -0.0843,0.1695 -0.2219,0.2805 -0.4127,0.3328 0.1863,0.0481 0.3328,0.157 0.4393,0.3224 0.1065,0.1674 0.1598,0.3809 0.1598,0.6384l0 0.5317 0 -0.0001zm1.8444 -4.0775l1.2224 0 0.9939 5.4883 -0.9185 0 -0.1486 -0.9692 -1.0849 0 -0.1464 0.9692 -0.9118 0 0.9939 -5.4883 0 0zm0.1864 3.7363l0.8453 0 -0.4215 -2.7776 -0.4237 2.7776zm5.7957 0.0146l0 0.3244c0,0.1947 -0.02,0.3809 -0.0599,0.5589 -0.0422,0.18 -0.1154,0.337 -0.2196,0.473 -0.1043,0.1361 -0.2485,0.245 -0.4282,0.3266 -0.1797,0.0816 -0.4104,0.1235 -0.6922,0.1235 -0.0022,0 -0.0022,0 -0.0022,0.0021 -0.2884,0 -0.5236,-0.0419 -0.7055,-0.1235 -0.1819,-0.0817 -0.3239,-0.1947 -0.4282,-0.335 -0.1043,-0.1402 -0.1753,-0.3056 -0.213,-0.494 -0.04,-0.1863 -0.0599,-0.383 -0.0599,-0.5903l0 -2.5453c0,-0.2093 0.02,-0.4082 0.0599,-0.5945 0.0377,-0.1863 0.1087,-0.3496 0.213,-0.4898 0.1043,-0.1402 0.2462,-0.2512 0.4282,-0.3349 0.1819,-0.0816 0.4149,-0.1235 0.6966,-0.1235l0.0044 -0.0042c0.2862,0 0.5192,0.0419 0.7011,0.1235 0.1819,0.0837 0.3261,0.1947 0.4304,0.3328 0.1043,0.1381 0.1753,0.2972 0.2152,0.4772 0.0399,0.18 0.0599,0.3684 0.0599,0.5631l0 0.314 -0.9096 0 0 -0.3098c0,-0.0816 -0.0067,-0.1633 -0.0177,-0.2428 -0.0111,-0.0795 -0.0355,-0.1507 -0.0688,-0.2156 -0.0333,-0.0628 -0.0843,-0.1151 -0.1487,-0.1549 -0.0643,-0.0398 -0.1508,-0.0586 -0.2573,-0.0586 -0.1132,0 -0.2019,0.021 -0.2662,0.0607 -0.0644,0.0419 -0.1154,0.0963 -0.1509,0.1612 -0.0355,0.067 -0.0577,0.1444 -0.0688,0.2302 -0.0111,0.0858 -0.0156,0.1759 -0.0156,0.2701l0 2.5369c0,0.09 0.0045,0.1779 0.0133,0.2638 0.0089,0.0858 0.0311,0.1632 0.0666,0.2302 0.0333,0.0691 0.0843,0.1235 0.1486,0.1632 0.0644,0.0398 0.1531,0.0607 0.2684,0.0607 0.1043,0 0.1886,-0.0189 0.2529,-0.0544 0.0644,-0.0356 0.1154,-0.0837 0.1531,-0.1444 0.0355,-0.0607 0.0599,-0.1319 0.0732,-0.2114 0.011,-0.0795 0.0177,-0.1633 0.0177,-0.2491l0 -0.3203 0.9096 0 0.0001 0zm1.221 1.7374l0 -5.4841 0.9052 0 0 2.3045 0.3328 0 0.852 -2.3045 0.9673 0 -0.9718 2.6792 1.0472 2.8049 -0.9673 0 -0.9007 -2.3507 -0.3594 0 0 2.3507 -0.9052 0z"/>
   <path class="fil3" d="M20.5936 19.08l1.2225 0 0.9939 5.4882 -0.9185 0 -0.1487 -0.9691 -1.0849 0 -0.1464 0.9691 -0.9118 0 0.9939 -5.4882 0 0zm0.1864 3.7363l0.8453 0 -0.4215 -2.7776 -0.4237 2.7776zm3.1134 1.752l0 -5.4841 0.9052 0 0 4.6657 1.482 0 0 0.8184 -2.3872 0 0 0zm3.3775 0l0 -5.4841 0.9074 0 0 5.4841 -0.9074 0zm5.1346 -5.4882l-1.0051 5.4882 -1.2224 0 -1.005 -5.4882 0.9118 0 0.7033 4.5463 0.7033 -4.5463 0.9141 0 0 0zm0.9858 5.4882l0 -5.4841 2.4582 0 0 0.8289 -1.5508 0 0 1.4506 1.2868 0 0 0.8289 -1.2868 0 0 1.551 1.5508 0 0 0.8247 -2.4582 0 0 0z"/>
   <path class="fil3" d="M9.1373 12.3624l-2.3455 -3.1102c-0.2735,-0.3627 -0.3865,-0.8003 -0.3471,-1.2239 0.0395,-0.4249 0.2314,-0.8349 0.5673,-1.1409 0.0467,-0.0425 0.096,-0.0828 0.148,-0.1207 0.3619,-0.2648 0.7958,-0.3718 1.2144,-0.3298 0.4105,0.0412 0.8065,0.2248 1.1061,0.5426 0.2997,-0.3178 0.6957,-0.5015 1.1062,-0.5427 0.4186,-0.042 0.8525,0.065 1.2144,0.3298 0.0519,0.0379 0.1013,0.0782 0.1479,0.1207 0.3359,0.306 0.5278,0.716 0.5673,1.1409 0.0394,0.4236 -0.0735,0.8612 -0.3471,1.2239l-2.6887 3.5653 -0.3433 -0.4551zm-1.659 -3.6284l2.0023 2.655 2.0023 -2.655c0.1408,-0.1867 0.199,-0.4113 0.1788,-0.6283 -0.0201,-0.2157 -0.1186,-0.4249 -0.2914,-0.5823 -0.026,-0.0237 -0.0518,-0.0449 -0.0773,-0.0635 -0.1848,-0.1352 -0.4071,-0.1898 -0.6221,-0.1682 -0.2137,0.0214 -0.4201,0.1191 -0.5745,0.2885 -0.023,0.0253 -0.0443,0.0512 -0.0634,0.0773l-0.5522 0.7542 -0.5523 -0.7542c-0.0191,-0.0262 -0.0404,-0.052 -0.0635,-0.0773 -0.1544,-0.1694 -0.3608,-0.267 -0.5745,-0.2885 -0.215,-0.0215 -0.4373,0.033 -0.6221,0.1682 -0.0255,0.0187 -0.0513,0.0398 -0.0773,0.0635 -0.1727,0.1574 -0.2713,0.3666 -0.2914,0.5823 -0.0202,0.217 0.038,0.4416 0.1788,0.6283z"/>
  </g>
 </g>
</svg>
